# xmcd
# 
# Track frame offsets:
#   150
#   16579
#   42404
#   60714
#   80465
#   100261
#   116093
#   131181
#   154379
#   172467
#   190059
#   206434
#   225871
#   243090
#   259489
# 
# Disc length: 3676 seconds
# 
# Revision: 2
# Processed by: cddbd v1.5.2PL0 Copyright (c) Steve Scherf et al.
# Submitted via: Synapstar 1.0 
# 
DISCID=cc0e5a0f
DTITLE=Various Artist - Sound Choice 8880
DYEAR=1900
DGENRE=Country
TTITLE0=Big and Rich - Save A Horse, Ride A Cowboy
TTITLE1=Keith, Toby - Time For Me To Ride
TTITLE2=McEntire, Reba - Somebody
TTITLE3=Wayne, Jimmy - You Are
TTITLE4=Chesney, Kenny - I Go Back
TTITLE5=Cotter, Brad - I Meant To
TTITLE6=Buffet, Jackson, Chesney, Black, Keith, Strait - Hey Good Lookin'
TTITLE7=McGraw, Tim - Live Like You Were Dying
TTITLE8=Evans, Sara - Suds In The Bucket
TTITLE9=Keith, Toby - If I Was Jesus
TTITLE10=Turner, Josh - What It Ain't
TTITLE11=Walker, Clay - I Can't Sleep
TTITLE12=Clark, Terri - Girls Lie Too
TTITLE13=Wilson, Gretchen - Homewrecker
TTITLE14=Wilson, Gretchen - Here For The Party
EXTD=MediaType: Karaoke CD+G Producer: Sound Choice
EXTT0=
EXTT1=
EXTT2=
EXTT3=
EXTT4=
EXTT5=
EXTT6=
EXTT7=
EXTT8=
EXTT9=
EXTT10=
EXTT11=
EXTT12=
EXTT13=
EXTT14=
PLAYORDER=
